<?xml version="1.0" encoding="utf-8"?>
<!-- Generator: Adobe Illustrator 19.2.1, SVG Export Plug-In . SVG Version: 6.00 Build 0)  -->
<svg version="1.1" id="Layer_1" xmlns="//www.w3.org/2000/svg" xmlns:xlink="//www.w3.org/1999/xlink" x="0px" y="0px"
	 viewBox="0 0 23 23" style="enable-background:new 0 0 23 23;" xml:space="preserve">
<style type="text/css">
	.st0{fill:#4F4F4D;}
	.st1{fill:#121212;}
	.st2{fill:#FCFDFD;}
	.st3{fill:#489BD5;stroke:#78787A;stroke-miterlimit:10;}
	.st4{opacity:0.7;fill:#EFEFEF;}
	.st5{fill:#FFFFFF;stroke:#CACCCA;stroke-miterlimit:10;}
	.st6{fill:#C9C9CA;}
	.st7{fill:#CB2027;}
	.st8{fill:#67AB47;}
	.st9{fill:none;stroke:#CACCCA;stroke-miterlimit:10;stroke-dasharray:4;}
	.st10{fill:#E0E0E0;}
	.st11{fill:none;stroke:#E6E6E8;stroke-miterlimit:10;}
	.st12{opacity:0.67;}
	.st13{opacity:0.9;fill:none;stroke:#757576;stroke-miterlimit:10;}
	.st14{opacity:0.92;}
	.st15{opacity:0.74;}
	.st16{fill:#E4F5FD;}
	.st17{fill:none;stroke:#282827;stroke-miterlimit:10;}
	.st18{fill:#159BD7;}
	.st19{fill:none;stroke:#FFFFFF;stroke-miterlimit:10;}
	.st20{fill:none;stroke:#686A6A;stroke-miterlimit:10;}
	.st21{fill:none;stroke:#D8D8D8;stroke-miterlimit:10;}
	.st22{fill:#E8EEF0;stroke:#D2D9DB;stroke-miterlimit:10;}
	.st23{fill:#EFEFEF;}
	.st24{fill:#87CBE9;stroke:#CACCCA;stroke-miterlimit:10;}
	.st25{fill:none;stroke:#E8E8E8;stroke-miterlimit:10;}
	.st26{fill:#282827;}
	.st27{fill:#FFFFFF;}
	.st28{fill:none;stroke:#DBDBDD;stroke-miterlimit:10;}
	.st29{fill:#EE2924;stroke:#78787A;stroke-miterlimit:10;}
	.st30{fill:#FFCA1C;stroke:#78787A;stroke-miterlimit:10;}
	.st31{fill:#22B24B;stroke:#78787A;stroke-miterlimit:10;}
	.st32{fill:none;stroke:#ED1C24;stroke-miterlimit:10;}
	.st33{fill:#ED1C24;}
	.st34{fill:#EDEDED;stroke:#D9DFDD;stroke-miterlimit:10;}
	.st35{fill:none;stroke:#C8C8C8;stroke-miterlimit:10;}
	.st36{fill:none;stroke:#555555;stroke-linecap:square;stroke-linejoin:round;stroke-miterlimit:10;}
	.st37{fill:none;stroke:#555555;stroke-miterlimit:10;}
	.st38{fill:none;stroke:#555555;stroke-linejoin:round;stroke-miterlimit:10;}
	.st39{fill:none;stroke:#FFFFFF;stroke-linecap:square;stroke-linejoin:round;stroke-miterlimit:10;}
	.st40{fill:none;stroke:#FFFFFF;stroke-linejoin:round;stroke-miterlimit:10;}
	.st41{fill:none;stroke:#D9DFDD;stroke-miterlimit:10;}
	.st42{fill:#FAF8F6;}
	.st43{fill:none;stroke:#9D9D9D;stroke-miterlimit:10;}
	.st44{fill:#9D9D9D;}
</style>
<g>
	<path class="st44" d="M21,19.1l-0.9-0.9c-0.1-0.1-3.4-3.4-8.4-0.2l-0.3,0.2L11.2,18c-5-3.2-8.3,0.1-8.4,0.2L2,19.1L2,7.2l0.1-0.1
		c1.4-1.6,3-2.4,4.7-2.5c2.2-0.1,4,1.1,4.7,1.6c0.7-0.6,2.5-1.7,4.7-1.6c1.7,0.1,3.3,0.9,4.7,2.5L21,7.2V19.1z M7,15.6
		c1.3,0,2.8,0.4,4.5,1.4c4-2.4,7.1-1.1,8.5-0.1V7.6c-1.2-1.3-2.5-1.9-3.8-2c-2.4-0.1-4.3,1.6-4.3,1.7l-0.3,0.3l-0.3-0.3
		c0,0-1.9-1.8-4.3-1.7C5.4,5.7,4.1,6.3,3,7.6v9.3C3.8,16.3,5.2,15.6,7,15.6z"/>
	<rect x="11" y="6.5" class="st44" width="1" height="11"/>
</g>
</svg>
