<?xml version="1.0" encoding="utf-8"?>
<!-- Generator: Adobe Illustrator 21.1.0, SVG Export Plug-In . SVG Version: 6.00 Build 0)  -->
<svg version="1.1" id="Layer_1" xmlns="http://www.w3.org/2000/svg" xmlns:xlink="http://www.w3.org/1999/xlink" x="0px" y="0px"
	 width="16px" height="16px" viewBox="0 0 16 16" style="enable-background:new 0 0 16 16;" xml:space="preserve">
<style type="text/css">
	.st0{fill:#FFFFFF;}
	.st1{fill:none;stroke:#000000;stroke-miterlimit:10;}
</style>
<g>
	<path d="M2.4,1.8L0,8.1h0.8l0.6-1.8h2.7l0.7,1.8h0.8L3.2,1.8H2.4z M1.7,5.7l1-2.7c0-0.1,0.1-0.2,0.1-0.4h0c0,0.2,0.1,0.3,0.1,0.4
		l1,2.7H1.7z"/>
	<path d="M9,4.8L9,4.8c0.3-0.1,0.6-0.3,0.8-0.6c0.2-0.3,0.3-0.6,0.3-0.9c0-0.4-0.2-0.8-0.5-1C9.3,1.9,8.9,1.8,8.3,1.8H6.5v6.3h1.8
		c0.6,0,1.1-0.2,1.5-0.5c0.4-0.3,0.6-0.8,0.6-1.3c0-0.4-0.1-0.8-0.4-1.1C9.8,5,9.4,4.8,9,4.8z M7.3,2.5h0.8c0.8,0,1.2,0.3,1.2,0.9
		C9.3,3.7,9.2,4,9,4.2C8.8,4.4,8.4,4.5,8,4.5H7.3V2.5z M9.3,7.1c-0.2,0.2-0.6,0.3-1,0.3h-1V5.2h0.8c1,0,1.5,0.4,1.5,1.1
		C9.7,6.6,9.5,6.9,9.3,7.1z"/>
</g>
<rect x="10.3" y="2.8" transform="matrix(0.7071 0.7071 -0.7071 0.7071 9.6429 -4.9869)" width="1" height="12.6"/>
<rect x="4.1" y="8" transform="matrix(0.7071 -0.7071 0.7071 0.7071 -6.508 6.4652)" width="1" height="6.2"/>
<g>
	<path d="M12.3,6.3c-0.2-0.4-0.2-0.8-0.2-1.2c0-0.8,0.2-1.5,0.7-1.9c0.4-0.5,1-0.7,1.8-0.7c0.5,0,1,0.1,1.5,0.4V1.9
		c-0.4-0.2-0.9-0.3-1.5-0.3c-0.9,0-1.7,0.3-2.3,0.9c-0.6,0.6-0.9,1.4-0.9,2.5c0,0.7,0.1,1.3,0.4,1.8L12.3,6.3z"/>
	<path d="M13.9,7.5l-0.6,0.6c0.3,0.1,0.6,0.1,0.9,0.1c0.7,0,1.3-0.1,1.7-0.4V7.1c-0.5,0.3-1,0.4-1.6,0.4C14.2,7.6,14,7.5,13.9,7.5z"
		/>
</g>
</svg>
